<svg width="128" height="128" viewBox="0 0 128 128" fill="none" xmlns="http://www.w3.org/2000/svg">
<g clip-path="url(#clip0_826_5996)">
<path d="M64 128C99.4669 128 128 99.4669 128 64C128 28.5331 99.4669 0 64 0C28.5331 0 0 28.5331 0 64C0 99.4669 28.5331 128 64 128Z" fill="#2775CA"/>
<path d="M81.6 74.1331C81.6 64.8 76 61.6 64.8 60.2668C56.8 59.2 55.2 57.0668 55.2 53.3331C55.2 49.5993 57.8669 47.2 63.2 47.2C68 47.2 70.6669 48.8 72 52.8C72.2669 53.6 73.0669 54.1331 73.8669 54.1331H78.1331C79.2 54.1331 80 53.3331 80 52.2668V52C78.9331 46.1331 74.1331 41.6 68 41.0668V34.6668C68 33.6 67.2 32.8 65.8669 32.5331H61.8669C60.8 32.5331 60 33.3331 59.7331 34.6668V40.8C51.7331 41.8668 46.6669 47.2 46.6669 53.8668C46.6669 62.6668 52 66.1331 63.2 67.4668C70.6669 68.8 73.0669 70.4 73.0669 74.6668C73.0669 78.9337 69.3331 81.8668 64.2669 81.8668C57.3331 81.8668 54.9331 78.9331 54.1331 74.9331C53.8669 73.8668 53.0669 73.3331 52.2669 73.3331H47.7331C46.6669 73.3331 45.8669 74.1331 45.8669 75.2V75.4668C46.9331 82.1331 51.2 86.9331 60 88.2668V94.6668C60 95.7331 60.8 96.5331 62.1331 96.8H66.1331C67.2 96.8 68 96 68.2669 94.6668V88.2668C76.2669 86.9331 81.6 81.3331 81.6 74.1331V74.1331Z" fill="white"/>
<path d="M50.4 102.133C29.6 94.6669 18.9331 71.4669 26.6669 50.9331C30.6669 39.7331 39.4669 31.2 50.4 27.2C51.4669 26.6669 52 25.8669 52 24.5331V20.8C52 19.7331 51.4669 18.9331 50.4 18.6669C50.1331 18.6669 49.6 18.6669 49.3331 18.9331C24 26.9331 10.1331 53.8669 18.1331 79.2C22.9331 94.1331 34.4 105.6 49.3331 110.4C50.4 110.933 51.4669 110.4 51.7331 109.333C52 109.067 52 108.8 52 108.267V104.533C52 103.733 51.2 102.667 50.4 102.133ZM78.6669 18.9331C77.6 18.4 76.5331 18.9331 76.2669 20C76 20.2669 76 20.5331 76 21.0669V24.8C76 25.8669 76.8 26.9331 77.6 27.4669C98.4 34.9331 109.067 58.1331 101.333 78.6669C97.3331 89.8669 88.5331 98.4 77.6 102.4C76.5331 102.933 76 103.733 76 105.067V108.8C76 109.867 76.5331 110.667 77.6 110.933C77.8669 110.933 78.4 110.933 78.6669 110.667C104 102.667 117.867 75.7331 109.867 50.4C105.067 35.2 93.3331 23.7331 78.6669 18.9331V18.9331Z" fill="white"/>
</g>
<defs>
<clipPath id="clip0_826_5996">
<rect width="128" height="128" fill="white"/>
</clipPath>
</defs>
</svg>
