<svg width="128" height="128" viewBox="0 0 128 128" fill="none" xmlns="http://www.w3.org/2000/svg">
<path fill-rule="evenodd" clip-rule="evenodd" d="M23.7997 9.29259L0.597586 57.943C0.509296 58.1239 0.481317 58.3283 0.517742 58.5263C0.554167 58.7243 0.653084 58.9054 0.800029 59.0432L63.4634 118.984C63.6414 119.155 63.8785 119.25 64.1251 119.25C64.3717 119.25 64.6088 119.155 64.7868 118.984L127.45 59.047C127.597 58.9091 127.696 58.728 127.732 58.53C127.769 58.3321 127.741 58.1277 127.653 57.9467L104.451 9.29633C104.376 9.13294 104.255 8.99453 104.104 8.89764C103.952 8.80075 103.776 8.74948 103.596 8.74995H24.662C24.4811 8.7477 24.3035 8.79774 24.1505 8.89403C23.9975 8.99031 23.8757 9.12873 23.7997 9.29259V9.29259V9.29259Z" fill="#50AF95"/>
<path fill-rule="evenodd" clip-rule="evenodd" d="M72.1759 62.939C71.726 62.9727 69.4016 63.1112 64.2169 63.1112C60.093 63.1112 57.1651 62.9877 56.1379 62.939C40.2012 62.2392 28.3058 59.4699 28.3058 56.1542C28.3058 52.8385 40.2012 50.0729 56.1379 49.3618V60.1809C57.1801 60.2558 60.1643 60.4317 64.2881 60.4317C69.2367 60.4317 71.7147 60.2259 72.1609 60.1847V49.3693C88.0638 50.0766 99.9329 52.846 99.9329 56.1542C99.9329 59.4624 88.0676 62.2317 72.1609 62.9353L72.1759 62.939ZM72.1759 48.2504V38.5689H94.3695V23.8054H33.9442V38.5689H56.1342V48.2466C38.0981 49.0737 24.5344 52.6401 24.5344 56.9139C24.5344 61.1876 38.0981 64.7503 56.1342 65.5811V96.6051H72.1721V65.5699C90.167 64.7429 103.708 61.1801 103.708 56.9101C103.708 52.6401 90.1782 49.0774 72.1721 48.2466L72.1759 48.2504Z" fill="white"/>
</svg>
